<svg xmlns="http://www.w3.org/2000/svg" width="56" height="56" viewBox="0 0 56 56" aria-hidden="true">
  <g fill="none" stroke="currentColor" stroke-width="2" stroke-linecap="round" stroke-linejoin="round">
    <!-- Head -->
    <path d="M28 12c5 0 9 3.8 9 8.5 0 2.3-1 4.4-2.6 6.1-1.6 1.7-3.8 2.8-6.4 2.8s-4.8-1.1-6.4-2.8C20 24.9 19 22.8 19 20.5 19 15.8 23 12 28 12z"/>
    <!-- Body -->
    <path d="M17 26c-2.5 2.8-4 6.3-4 10 0 6.1 5 11 15 11s15-4.9 15-11c0-3.7-1.5-7.2-4-10-3 2.5-6.5 3.8-11 3.8S20 28.5 17 26z"/>
    <!-- Wings -->
    <path d="M11 33c-2 3-2 7 0 10"/>
    <path d="M45 33c2 3 2 7 0 10"/>
    <!-- Beak -->
    <path d="M28 21l3 2-3 2-3-2 3-2z"/>
    <!-- Feet -->
    <path d="M22 47c2 1 4 1 6 0"/>
    <path d="M28 47c2 1 4 1 6 0"/>
  </g>
  <title>Linux Penguin</title>
</svg>
